<?xml-stylesheet type="text/css" href="style.css" ?>

<svg class="railroad-diagram" width="1040" height="158" viewBox="0 0 1040 158" xmlns="http://www.w3.org/2000/svg" xmlns:xlink="http://www.w3.org/1999/xlink">
	<g transform="translate(.5 .5)">
	<g>
	<path d="M20 21v20m0 -10h20"></path>
	</g>
	<g>
	<path d="M40 31h0"></path>
	<path d="M1000 31h0"></path>
	<path d="M40 31h20"></path>
	<g class="terminal whitespace">
	<path d="M60 31h428.75"></path>
	<path d="M551.25 31h428.75"></path>
	<rect x="488.75" y="20" width="62.5" height="22" rx="10" ry="10"></rect>
	<text x="520" y="35">ws:ss</text>
	</g>
	<path d="M980 31h20"></path>
	<path d="M40 31a10 10 0 0 1 10 10v19a10 10 0 0 0 10 10"></path>
	<g>
	<path d="M60 70h0"></path>
	<path d="M980 70h0"></path>
	<g class="non-terminal changed">
	<path d="M60 70h0"></path>
	<path d="M377.5 70h0"></path>
	<rect x="60" y="59" width="317.5" height="22"></rect>
	<text x="218.75" y="74">key-value-pair-or-inactivated-block</text>
	</g>
	<path d="M377.5 70h10"></path>
	<g>
	<path d="M387.5 70h0"></path>
	<path d="M765 70h0"></path>
	<path d="M387.5 70a10 10 0 0 0 10 -10v0a10 10 0 0 1 10 -10"></path>
	<g>
	<path d="M407.5 50h337.5"></path>
	</g>
	<path d="M745 50a10 10 0 0 1 10 10v0a10 10 0 0 0 10 10"></path>
	<path d="M387.5 70h20"></path>
	<g>
	<path d="M407.5 70h0"></path>
	<path d="M745 70h0"></path>
	<path d="M407.5 70h10"></path>
	<g>
	<path d="M417.5 70h63.75"></path>
	<path d="M671.25 70h63.75"></path>
	<path d="M481.25 70h20"></path>
	<g class="comment added">
	<path d="M501.25 70h0"></path>
	<path d="M651.25 70h0"></path>
	<text x="576.25" y="75" class="comment">comma can be omitted</text>
	</g>
	<path d="M651.25 70h20"></path>
	<path d="M481.25 70a10 10 0 0 1 10 10v7a10 10 0 0 0 10 10"></path>
	<g>
	<path d="M501.25 97h23.75"></path>
	<path d="M627.5 97h23.75"></path>
	<g class="terminal whitespace">
	<path d="M525 97h0"></path>
	<path d="M579 97h0"></path>
	<rect x="525" y="86" width="54" height="22" rx="10" ry="10"></rect>
	<text x="552" y="101">ws:n</text>
	</g>
	<path d="M579 97h10"></path>
	<path d="M589 97h10"></path>
	<g class="terminal ">
	<path d="M599 97h0"></path>
	<path d="M627.5 97h0"></path>
	<rect x="599" y="86" width="28.5" height="22" rx="10" ry="10"></rect>
	<text x="613.25" y="101">,</text>
	</g>
	</g>
	<path d="M651.25 97a10 10 0 0 0 10 -10v-7a10 10 0 0 1 10 -10"></path>
	</g>
	<path d="M735 70h10"></path>
	<path d="M417.5 70a10 10 0 0 0 -10 10v37a10 10 0 0 0 10 10"></path>
	<g class="non-terminal changed">
	<path d="M417.5 127h0"></path>
	<path d="M735 127h0"></path>
	<rect x="417.5" y="116" width="317.5" height="22"></rect>
	<text x="576.25" y="131">key-value-pair-or-inactivated-block</text>
	</g>
	<path d="M735 127a10 10 0 0 0 10 -10v-37a10 10 0 0 0 -10 -10"></path>
	</g>
	<path d="M745 70h20"></path>
	</g>
	<g>
	<path d="M765 70h0"></path>
	<path d="M907.5 70h0"></path>
	<path d="M765 70a10 10 0 0 0 10 -10v0a10 10 0 0 1 10 -10"></path>
	<g>
	<path d="M785 50h102.5"></path>
	</g>
	<path d="M887.5 50a10 10 0 0 1 10 10v0a10 10 0 0 0 10 10"></path>
	<path d="M765 70h20"></path>
	<g>
	<path d="M785 70h0"></path>
	<path d="M887.5 70h0"></path>
	<g class="terminal whitespace">
	<path d="M785 70h0"></path>
	<path d="M839 70h0"></path>
	<rect x="785" y="59" width="54" height="22" rx="10" ry="10"></rect>
	<text x="812" y="74">ws:n</text>
	</g>
	<path d="M839 70h10"></path>
	<path d="M849 70h10"></path>
	<g class="terminal added">
	<path d="M859 70h0"></path>
	<path d="M887.5 70h0"></path>
	<rect x="859" y="59" width="28.5" height="22" rx="10" ry="10"></rect>
	<text x="873.25" y="74">,</text>
	</g>
	</g>
	<path d="M887.5 70h20"></path>
	</g>
	<path d="M907.5 70h10"></path>
	<g class="terminal whitespace">
	<path d="M917.5 70h0"></path>
	<path d="M980 70h0"></path>
	<rect x="917.5" y="59" width="62.5" height="22" rx="10" ry="10"></rect>
	<text x="948.75" y="74">ws:nl</text>
	</g>
	</g>
	<path d="M980 70a10 10 0 0 0 10 -10v-19a10 10 0 0 1 10 -10"></path>
	</g>
	<path d="M 1000 31 h 20 m 0 -10 v 20"></path>
	</g>
	<style>
		svg {
			background-color: hsl(30,20%,95%);
		}
		path {
			stroke-width: 3;
			stroke: black;
			fill: rgba(0,0,0,0);
		}
		text {
			font: bold 14px monospace;
			text-anchor: middle;
			white-space: pre;
		}
		text.diagram-text {
			font-size: 12px;
		}
		text.diagram-arrow {
			font-size: 16px;
		}
		text.label {
			text-anchor: start;
		}
		text.comment {
			font: italic 12px monospace;
		}
		g.non-terminal text {
			/&#42;font-style: italic;&#42;/
		}
		rect {
			stroke-width: 3;
			stroke: black;
			fill: hsl(120,100%,90%);
		}
		rect.group-box {
			stroke: gray;
			stroke-dasharray: 10 5;
			fill: none;
		}
		path.diagram-text {
			stroke-width: 3;
			stroke: black;
			fill: white;
			cursor: help;
		}
		g.diagram-text:hover path.diagram-text {
			fill: #eee;
		}</style>
	</svg>
