<?xml-stylesheet type="text/css" href="style.css" ?>


<svg class="railroad-diagram" width="897" height="158" viewBox="0 0 897 158" xmlns="http://www.w3.org/2000/svg" xmlns:xlink="http://www.w3.org/1999/xlink">
	<g transform="translate(.5 .5)">
	<g>
	<path d="M20 21v20m0 -10h20"></path>
	</g>
	<g>
	<path d="M40 31h0"></path>
	<path d="M857 31h0"></path>
	<path d="M40 31h20"></path>
	<g class="terminal whitespace">
	<path d="M60 31h357.25"></path>
	<path d="M479.75 31h357.25"></path>
	<rect x="417.25" y="20" width="62.5" height="22" rx="10" ry="10"></rect>
	<text x="448.5" y="35">ws:ss</text>
	</g>
	<path d="M837 31h20"></path>
	<path d="M40 31a10 10 0 0 1 10 10v19a10 10 0 0 0 10 10"></path>
	<g>
	<path d="M60 70h0"></path>
	<path d="M837 70h0"></path>
	<g class="non-terminal changed">
	<path d="M60 70h0"></path>
	<path d="M301 70h0"></path>
	<rect x="60" y="59" width="241" height="22"></rect>
	<text x="180.5" y="74">value-or-inactivated-block</text>
	</g>
	<path d="M301 70h10"></path>
	<g>
	<path d="M311 70h0"></path>
	<path d="M612 70h0"></path>
	<path d="M311 70a10 10 0 0 0 10 -10v0a10 10 0 0 1 10 -10"></path>
	<g>
	<path d="M331 50h261"></path>
	</g>
	<path d="M592 50a10 10 0 0 1 10 10v0a10 10 0 0 0 10 10"></path>
	<path d="M311 70h20"></path>
	<g>
	<path d="M331 70h0"></path>
	<path d="M592 70h0"></path>
	<path d="M331 70h10"></path>
	<g>
	<path d="M341 70h25.5"></path>
	<path d="M556.5 70h25.5"></path>
	<path d="M366.5 70h20"></path>
	<g class="comment added">
	<path d="M386.5 70h0"></path>
	<path d="M536.5 70h0"></path>
	<text x="461.5" y="75" class="comment">comma can be omitted</text>
	</g>
	<path d="M536.5 70h20"></path>
	<path d="M366.5 70a10 10 0 0 1 10 10v7a10 10 0 0 0 10 10"></path>
	<g>
	<path d="M386.5 97h23.75"></path>
	<path d="M512.75 97h23.75"></path>
	<g class="terminal whitespace">
	<path d="M410.25 97h0"></path>
	<path d="M464.25 97h0"></path>
	<rect x="410.25" y="86" width="54" height="22" rx="10" ry="10"></rect>
	<text x="437.25" y="101">ws:n</text>
	</g>
	<path d="M464.25 97h10"></path>
	<path d="M474.25 97h10"></path>
	<g class="terminal ">
	<path d="M484.25 97h0"></path>
	<path d="M512.75 97h0"></path>
	<rect x="484.25" y="86" width="28.5" height="22" rx="10" ry="10"></rect>
	<text x="498.5" y="101">,</text>
	</g>
	</g>
	<path d="M536.5 97a10 10 0 0 0 10 -10v-7a10 10 0 0 1 10 -10"></path>
	</g>
	<path d="M582 70h10"></path>
	<path d="M341 70a10 10 0 0 0 -10 10v37a10 10 0 0 0 10 10"></path>
	<g class="non-terminal changed">
	<path d="M341 127h0"></path>
	<path d="M582 127h0"></path>
	<rect x="341" y="116" width="241" height="22"></rect>
	<text x="461.5" y="131">value-or-inactivated-block</text>
	</g>
	<path d="M582 127a10 10 0 0 0 10 -10v-37a10 10 0 0 0 -10 -10"></path>
	</g>
	<path d="M592 70h20"></path>
	</g>
	<g>
	<path d="M612 70h0"></path>
	<path d="M837 70h0"></path>
	<path d="M612 70a10 10 0 0 0 10 -10v0a10 10 0 0 1 10 -10"></path>
	<g>
	<path d="M632 50h185"></path>
	</g>
	<path d="M817 50a10 10 0 0 1 10 10v0a10 10 0 0 0 10 10"></path>
	<path d="M612 70h20"></path>
	<g>
	<path d="M632 70h0"></path>
	<path d="M817 70h0"></path>
	<g class="terminal whitespace">
	<path d="M632 70h0"></path>
	<path d="M686 70h0"></path>
	<rect x="632" y="59" width="54" height="22" rx="10" ry="10"></rect>
	<text x="659" y="74">ws:n</text>
	</g>
	<path d="M686 70h10"></path>
	<path d="M696 70h10"></path>
	<g class="terminal ">
	<path d="M706 70h0"></path>
	<path d="M734.5 70h0"></path>
	<rect x="706" y="59" width="28.5" height="22" rx="10" ry="10"></rect>
	<text x="720.25" y="74">,</text>
	</g>
	<path d="M734.5 70h10"></path>
	<path d="M744.5 70h10"></path>
	<g class="terminal whitespace">
	<path d="M754.5 70h0"></path>
	<path d="M817 70h0"></path>
	<rect x="754.5" y="59" width="62.5" height="22" rx="10" ry="10"></rect>
	<text x="785.75" y="74">ws:nl</text>
	</g>
	</g>
	<path d="M817 70h20"></path>
	</g>
	</g>
	<path d="M837 70a10 10 0 0 0 10 -10v-19a10 10 0 0 1 10 -10"></path>
	</g>
	<path d="M 857 31 h 20 m 0 -10 v 20"></path>
	</g>
	<style>
		svg {
			background-color: hsl(30,20%,95%);
		}
		path {
			stroke-width: 3;
			stroke: black;
			fill: rgba(0,0,0,0);
		}
		text {
			font: bold 14px monospace;
			text-anchor: middle;
			white-space: pre;
		}
		text.diagram-text {
			font-size: 12px;
		}
		text.diagram-arrow {
			font-size: 16px;
		}
		text.label {
			text-anchor: start;
		}
		text.comment {
			font: italic 12px monospace;
		}
		g.non-terminal text {
			/&#42;font-style: italic;&#42;/
		}
		rect {
			stroke-width: 3;
			stroke: black;
			fill: hsl(120,100%,90%);
		}
		rect.group-box {
			stroke: gray;
			stroke-dasharray: 10 5;
			fill: none;
		}
		path.diagram-text {
			stroke-width: 3;
			stroke: black;
			fill: white;
			cursor: help;
		}
		g.diagram-text:hover path.diagram-text {
			fill: #eee;
		}</style>
	</svg>
