<?xml-stylesheet type="text/css" href="style.css" ?>

<svg class="railroad-diagram" width="713.5" height="109" viewBox="0 0 713.5 109" xmlns="http://www.w3.org/2000/svg" xmlns:xlink="http://www.w3.org/1999/xlink">
	<g transform="translate(.5 .5)">
	<g>
	<path d="M20 30v20m0 -10h20"></path>
	</g>
	<path d="M40 40h10"></path>
	<g class="terminal added">
	<path d="M50 40h0"></path>
	<path d="M78.5 40h0"></path>
	<rect x="50" y="29" width="28.5" height="22" rx="10" ry="10"></rect>
	<text x="64.25" y="44">&#96;</text>
	</g>
	<path d="M78.5 40h10"></path>
	<g>
	<path d="M88.5 40h0"></path>
	<path d="M625 40h0"></path>
	<path d="M88.5 40a10 10 0 0 0 10 -10v0a10 10 0 0 1 10 -10"></path>
	<g>
	<path d="M108.5 20h496.5"></path>
	</g>
	<path d="M605 20a10 10 0 0 1 10 10v0a10 10 0 0 0 10 10"></path>
	<path d="M88.5 40h20"></path>
	<g>
	<path d="M108.5 40h0"></path>
	<path d="M605 40h0"></path>
	<path d="M108.5 40h10"></path>
	<g>
	<path d="M118.5 40h0"></path>
	<path d="M595 40h0"></path>
	<path d="M118.5 40h20"></path>
	<g class="non-terminal added">
	<path d="M138.5 40h0"></path>
	<path d="M575 40h0"></path>
	<rect x="138.5" y="29" width="436.5" height="22"></rect>
	<text x="356.75" y="44">Any code point except &#96; or \ or control character</text>
	</g>
	<path d="M575 40h20"></path>
	<path d="M118.5 40a10 10 0 0 1 10 10v10a10 10 0 0 0 10 10"></path>
	<g class="non-terminal changed">
	<path d="M138.5 70h136"></path>
	<path d="M439 70h136"></path>
	<rect x="274.5" y="59" width="164.5" height="22"></rect>
	<text x="356.75" y="74">escaped-character</text>
	</g>
	<path d="M575 70a10 10 0 0 0 10 -10v-10a10 10 0 0 1 10 -10"></path>
	</g>
	<path d="M595 40h10"></path>
	<path d="M118.5 40a10 10 0 0 0 -10 10v29a10 10 0 0 0 10 10"></path>
	<g>
	<path d="M118.5 89h476.5"></path>
	</g>
	<path d="M595 89a10 10 0 0 0 10 -10v-29a10 10 0 0 0 -10 -10"></path>
	</g>
	<path d="M605 40h20"></path>
	</g>
	<path d="M625 40h10"></path>
	<g class="terminal added">
	<path d="M635 40h0"></path>
	<path d="M663.5 40h0"></path>
	<rect x="635" y="29" width="28.5" height="22" rx="10" ry="10"></rect>
	<text x="649.25" y="44">&#96;</text>
	</g>
	<path d="M663.5 40h10"></path>
	<path d="M 673.5 40 h 20 m 0 -10 v 20"></path>
	</g>
	<style>
		svg {
			background-color: hsl(30,20%,95%);
		}
		path {
			stroke-width: 3;
			stroke: black;
			fill: rgba(0,0,0,0);
		}
		text {
			font: bold 14px monospace;
			text-anchor: middle;
			white-space: pre;
		}
		text.diagram-text {
			font-size: 12px;
		}
		text.diagram-arrow {
			font-size: 16px;
		}
		text.label {
			text-anchor: start;
		}
		text.comment {
			font: italic 12px monospace;
		}
		g.non-terminal text {
			/&#42;font-style: italic;&#42;/
		}
		rect {
			stroke-width: 3;
			stroke: black;
			fill: hsl(120,100%,90%);
		}
		rect.group-box {
			stroke: gray;
			stroke-dasharray: 10 5;
			fill: none;
		}
		path.diagram-text {
			stroke-width: 3;
			stroke: black;
			fill: white;
			cursor: help;
		}
		g.diagram-text:hover path.diagram-text {
			fill: #eee;
		}</style>
	</svg>
