<?xml-stylesheet type="text/css" href="style.css" ?>


<svg class="railroad-diagram" width="382" height="82" viewBox="0 0 382 82" xmlns="http://www.w3.org/2000/svg" xmlns:xlink="http://www.w3.org/1999/xlink">
<g transform="translate(.5 .5)">
<g>
<path d="M20 21v20m0 -10h20"></path>
</g>
<g>
<path d="M40 31h0"></path>
<path d="M191 31h0"></path>
<path d="M40 31h20"></path>
<g>
<path d="M60 31h111"></path>
</g>
<path d="M171 31h20"></path>
<path d="M40 31a10 10 0 0 1 10 10v0a10 10 0 0 0 10 10"></path>
<g>
<path d="M60 51h0"></path>
<path d="M171 51h0"></path>
<g class="terminal ASTN">
<path d="M60 51h0"></path>
<path d="M88.5 51h0"></path>
<rect x="60" y="40" width="28.5" height="22" rx="10" ry="10"></rect>
<text x="74.25" y="55">!</text>
</g>
<path d="M88.5 51h10"></path>
<path d="M98.5 51h10"></path>
<g class="non-terminal ASTN">
<path d="M108.5 51h0"></path>
<path d="M171 51h0"></path>
<rect x="108.5" y="40" width="62.5" height="22"></rect>
<text x="139.75" y="55">value</text>
</g>
</g>
<path d="M171 51a10 10 0 0 0 10 -10v0a10 10 0 0 1 10 -10"></path>
</g>
<g>
<path d="M191 31h0"></path>
<path d="M259.5 31h0"></path>
<path d="M191 31h20"></path>
<g>
<path d="M211 31h28.5"></path>
</g>
<path d="M239.5 31h20"></path>
<path d="M191 31a10 10 0 0 1 10 10v0a10 10 0 0 0 10 10"></path>
<g class="terminal ASTN">
<path d="M211 51h0"></path>
<path d="M239.5 51h0"></path>
<rect x="211" y="40" width="28.5" height="22" rx="10" ry="10"></rect>
<text x="225.25" y="55">#</text>
</g>
<path d="M239.5 51a10 10 0 0 0 10 -10v0a10 10 0 0 1 10 -10"></path>
</g>
<path d="M259.5 31h10"></path>
<g class="non-terminal ">
<path d="M269.5 31h0"></path>
<path d="M332 31h0"></path>
<rect x="269.5" y="20" width="62.5" height="22"></rect>
<text x="300.75" y="35">value</text>
</g>
<path d="M332 31h10"></path>
<path d="M 342 31 h 20 m 0 -10 v 20"></path>
</g>
<style>

g.ASTN rect {
    fill: hsl(195, 100%, 50%);
}
	svg {
		background-color: hsl(30,20%,95%);
	}
	path {
		stroke-width: 3;
		stroke: black;
		fill: rgba(0,0,0,0);
	}
	text {
		font: bold 14px monospace;
		text-anchor: middle;
		white-space: pre;
	}
	text.diagram-text {
		font-size: 12px;
	}
	text.diagram-arrow {
		font-size: 16px;
	}
	text.label {
		text-anchor: start;
	}
	text.comment {
		font: italic 12px monospace;
	}
	g.non-terminal text {
		/&#42;font-style: italic;&#42;/
	}
	rect {
		stroke-width: 3;
		stroke: black;
		fill: hsl(120,100%,90%);
	}
	rect.group-box {
		stroke: gray;
		stroke-dasharray: 10 5;
		fill: none;
	}
	path.diagram-text {
		stroke-width: 3;
		stroke: black;
		fill: white;
		cursor: help;
	}
	g.diagram-text:hover path.diagram-text {
		fill: #eee;
	}</style>
</svg>
