<?xml-stylesheet type="text/css" href="style.css" ?>

<svg class="railroad-diagram" width="407" height="362" viewBox="0 0 407 362" xmlns="http://www.w3.org/2000/svg" xmlns:xlink="http://www.w3.org/1999/xlink">
	<g transform="translate(.5 .5)">
	<g>
	<path d="M20 21v20m0 -10h20"></path>
	</g>
	<path d="M40 31h10"></path>
	<g class="terminal ">
	<path d="M50 31h0"></path>
	<path d="M78.5 31h0"></path>
	<rect x="50" y="20" width="28.5" height="22" rx="10" ry="10"></rect>
	<text x="64.25" y="35">\</text>
	</g>
	<path d="M78.5 31h10"></path>
	<g>
	<path d="M88.5 31h0"></path>
	<path d="M367 31h0"></path>
	<path d="M88.5 31h20"></path>
	<g>
	<path d="M108.5 31h51.5"></path>
	<path d="M295.5 31h51.5"></path>
	<g class="terminal added">
	<path d="M160 31h0"></path>
	<path d="M188.5 31h0"></path>
	<rect x="160" y="20" width="28.5" height="22" rx="10" ry="10"></rect>
	<text x="174.25" y="35">'</text>
	</g>
	<path d="M188.5 31h10"></path>
	<path d="M198.5 31h10"></path>
	<g class="comment ">
	<path d="M208.5 31h0"></path>
	<path d="M295.5 31h0"></path>
	<text x="252" y="36" class="comment">aposthrophe</text>
	</g>
	</g>
	<path d="M347 31h20"></path>
	<path d="M88.5 31a10 10 0 0 1 10 10v10a10 10 0 0 0 10 10"></path>
	<g>
	<path d="M108.5 61h62"></path>
	<path d="M285 61h62"></path>
	<g class="terminal added">
	<path d="M170.5 61h0"></path>
	<path d="M199 61h0"></path>
	<rect x="170.5" y="50" width="28.5" height="22" rx="10" ry="10"></rect>
	<text x="184.75" y="65">&#96;</text>
	</g>
	<path d="M199 61h10"></path>
	<path d="M209 61h10"></path>
	<g class="comment ">
	<path d="M219 61h0"></path>
	<path d="M285 61h0"></path>
	<text x="252" y="66" class="comment">backtick</text>
	</g>
	</g>
	<path d="M347 61a10 10 0 0 0 10 -10v-10a10 10 0 0 1 10 -10"></path>
	<path d="M88.5 31a10 10 0 0 1 10 10v40a10 10 0 0 0 10 10"></path>
	<g>
	<path d="M108.5 91h41"></path>
	<path d="M306 91h41"></path>
	<g class="terminal ">
	<path d="M149.5 91h0"></path>
	<path d="M178 91h0"></path>
	<rect x="149.5" y="80" width="28.5" height="22" rx="10" ry="10"></rect>
	<text x="163.75" y="95">"</text>
	</g>
	<path d="M178 91h10"></path>
	<path d="M188 91h10"></path>
	<g class="comment ">
	<path d="M198 91h0"></path>
	<path d="M306 91h0"></path>
	<text x="252" y="96" class="comment">quotation mark</text>
	</g>
	</g>
	<path d="M347 91a10 10 0 0 0 10 -10v-40a10 10 0 0 1 10 -10"></path>
	<path d="M88.5 31a10 10 0 0 1 10 10v70a10 10 0 0 0 10 10"></path>
	<g>
	<path d="M108.5 121h37.5"></path>
	<path d="M309.5 121h37.5"></path>
	<g class="terminal ">
	<path d="M146 121h0"></path>
	<path d="M174.5 121h0"></path>
	<rect x="146" y="110" width="28.5" height="22" rx="10" ry="10"></rect>
	<text x="160.25" y="125">\</text>
	</g>
	<path d="M174.5 121h10"></path>
	<path d="M184.5 121h10"></path>
	<g class="comment ">
	<path d="M194.5 121h0"></path>
	<path d="M309.5 121h0"></path>
	<text x="252" y="126" class="comment">reverse solidus</text>
	</g>
	</g>
	<path d="M347 121a10 10 0 0 0 10 -10v-70a10 10 0 0 1 10 -10"></path>
	<path d="M88.5 31a10 10 0 0 1 10 10v100a10 10 0 0 0 10 10"></path>
	<g>
	<path d="M108.5 151h65.5"></path>
	<path d="M281.5 151h65.5"></path>
	<g class="terminal ">
	<path d="M174 151h0"></path>
	<path d="M202.5 151h0"></path>
	<rect x="174" y="140" width="28.5" height="22" rx="10" ry="10"></rect>
	<text x="188.25" y="155">/</text>
	</g>
	<path d="M202.5 151h10"></path>
	<path d="M212.5 151h10"></path>
	<g class="comment ">
	<path d="M222.5 151h0"></path>
	<path d="M281.5 151h0"></path>
	<text x="252" y="156" class="comment">solidus</text>
	</g>
	</g>
	<path d="M347 151a10 10 0 0 0 10 -10v-100a10 10 0 0 1 10 -10"></path>
	<path d="M88.5 31a10 10 0 0 1 10 10v130a10 10 0 0 0 10 10"></path>
	<g>
	<path d="M108.5 181h58.5"></path>
	<path d="M288.5 181h58.5"></path>
	<g class="terminal ">
	<path d="M167 181h0"></path>
	<path d="M195.5 181h0"></path>
	<rect x="167" y="170" width="28.5" height="22" rx="10" ry="10"></rect>
	<text x="181.25" y="185">b</text>
	</g>
	<path d="M195.5 181h10"></path>
	<path d="M205.5 181h10"></path>
	<g class="comment ">
	<path d="M215.5 181h0"></path>
	<path d="M288.5 181h0"></path>
	<text x="252" y="186" class="comment">backspace</text>
	</g>
	</g>
	<path d="M347 181a10 10 0 0 0 10 -10v-130a10 10 0 0 1 10 -10"></path>
	<path d="M88.5 31a10 10 0 0 1 10 10v160a10 10 0 0 0 10 10"></path>
	<g>
	<path d="M108.5 211h58.5"></path>
	<path d="M288.5 211h58.5"></path>
	<g class="terminal ">
	<path d="M167 211h0"></path>
	<path d="M195.5 211h0"></path>
	<rect x="167" y="200" width="28.5" height="22" rx="10" ry="10"></rect>
	<text x="181.25" y="215">f</text>
	</g>
	<path d="M195.5 211h10"></path>
	<path d="M205.5 211h10"></path>
	<g class="comment ">
	<path d="M215.5 211h0"></path>
	<path d="M288.5 211h0"></path>
	<text x="252" y="216" class="comment">form feed</text>
	</g>
	</g>
	<path d="M347 211a10 10 0 0 0 10 -10v-160a10 10 0 0 1 10 -10"></path>
	<path d="M88.5 31a10 10 0 0 1 10 10v190a10 10 0 0 0 10 10"></path>
	<g>
	<path d="M108.5 241h58.5"></path>
	<path d="M288.5 241h58.5"></path>
	<g class="terminal ">
	<path d="M167 241h0"></path>
	<path d="M195.5 241h0"></path>
	<rect x="167" y="230" width="28.5" height="22" rx="10" ry="10"></rect>
	<text x="181.25" y="245">n</text>
	</g>
	<path d="M195.5 241h10"></path>
	<path d="M205.5 241h10"></path>
	<g class="comment ">
	<path d="M215.5 241h0"></path>
	<path d="M288.5 241h0"></path>
	<text x="252" y="246" class="comment">line feed</text>
	</g>
	</g>
	<path d="M347 241a10 10 0 0 0 10 -10v-190a10 10 0 0 1 10 -10"></path>
	<path d="M88.5 31a10 10 0 0 1 10 10v220a10 10 0 0 0 10 10"></path>
	<g>
	<path d="M108.5 271h37.5"></path>
	<path d="M309.5 271h37.5"></path>
	<g class="terminal ">
	<path d="M146 271h0"></path>
	<path d="M174.5 271h0"></path>
	<rect x="146" y="260" width="28.5" height="22" rx="10" ry="10"></rect>
	<text x="160.25" y="275">r</text>
	</g>
	<path d="M174.5 271h10"></path>
	<path d="M184.5 271h10"></path>
	<g class="comment ">
	<path d="M194.5 271h0"></path>
	<path d="M309.5 271h0"></path>
	<text x="252" y="276" class="comment">carriage return</text>
	</g>
	</g>
	<path d="M347 271a10 10 0 0 0 10 -10v-220a10 10 0 0 1 10 -10"></path>
	<path d="M88.5 31a10 10 0 0 1 10 10v250a10 10 0 0 0 10 10"></path>
	<g>
	<path d="M108.5 301h20"></path>
	<path d="M327 301h20"></path>
	<g class="terminal ">
	<path d="M128.5 301h0"></path>
	<path d="M157 301h0"></path>
	<rect x="128.5" y="290" width="28.5" height="22" rx="10" ry="10"></rect>
	<text x="142.75" y="305">t</text>
	</g>
	<path d="M157 301h10"></path>
	<path d="M167 301h10"></path>
	<g class="comment ">
	<path d="M177 301h0"></path>
	<path d="M327 301h0"></path>
	<text x="252" y="306" class="comment">character tabulation</text>
	</g>
	</g>
	<path d="M347 301a10 10 0 0 0 10 -10v-250a10 10 0 0 1 10 -10"></path>
	<path d="M88.5 31a10 10 0 0 1 10 10v280a10 10 0 0 0 10 10"></path>
	<g>
	<path d="M108.5 331h0"></path>
	<path d="M347 331h0"></path>
	<g class="terminal ">
	<path d="M108.5 331h0"></path>
	<path d="M137 331h0"></path>
	<rect x="108.5" y="320" width="28.5" height="22" rx="10" ry="10"></rect>
	<text x="122.75" y="335">u</text>
	</g>
	<path d="M137 331h10"></path>
	<path d="M147 331h10"></path>
	<g class="non-terminal ">
	<path d="M157 331h0"></path>
	<path d="M347 331h0"></path>
	<rect x="157" y="320" width="190" height="22"></rect>
	<text x="252" y="335">4 hexadecimal digits</text>
	</g>
	</g>
	<path d="M347 331a10 10 0 0 0 10 -10v-280a10 10 0 0 1 10 -10"></path>
	</g>
	<path d="M 367 31 h 20 m 0 -10 v 20"></path>
	</g>
	<style>
		svg {
			background-color: hsl(30,20%,95%);
		}
		path {
			stroke-width: 3;
			stroke: black;
			fill: rgba(0,0,0,0);
		}
		text {
			font: bold 14px monospace;
			text-anchor: middle;
			white-space: pre;
		}
		text.diagram-text {
			font-size: 12px;
		}
		text.diagram-arrow {
			font-size: 16px;
		}
		text.label {
			text-anchor: start;
		}
		text.comment {
			font: italic 12px monospace;
		}
		g.non-terminal text {
			/&#42;font-style: italic;&#42;/
		}
		rect {
			stroke-width: 3;
			stroke: black;
			fill: hsl(120,100%,90%);
		}
		rect.group-box {
			stroke: gray;
			stroke-dasharray: 10 5;
			fill: none;
		}
		path.diagram-text {
			stroke-width: 3;
			stroke: black;
			fill: white;
			cursor: help;
		}
		g.diagram-text:hover path.diagram-text {
			fill: #eee;
		}</style>
	</svg>
