<?xml-stylesheet type="text/css" href="style.css" ?>
<svg class="railroad-diagram" width="951.5" height="62" viewBox="0 0 951.5 62" xmlns="http://www.w3.org/2000/svg" xmlns:xlink="http://www.w3.org/1999/xlink">
	<g transform="translate(.5 .5)">
	<g>
	<path d="M20 21v20m0 -10h20"></path>
	</g>
	<path d="M40 31h10"></path>
	<g class="terminal ">
	<path d="M50 31h0"></path>
	<path d="M78.5 31h0"></path>
	<rect x="50" y="20" width="28.5" height="22" rx="10" ry="10"></rect>
	<text x="64.25" y="35">{</text>
	</g>
	<path d="M78.5 31h10"></path>
	<path d="M88.5 31h10"></path>
	<g class="terminal whitespace">
	<path d="M98.5 31h0"></path>
	<path d="M246 31h0"></path>
	<rect x="98.5" y="20" width="147.5" height="22" rx="10" ry="10"></rect>
	<text x="172.25" y="35">ws:indentation+</text>
	</g>
	<path d="M246 31h10"></path>
	<path d="M256 31h10"></path>
	<g class="non-terminal changed">
	<path d="M266 31h0"></path>
	<path d="M685.5 31h0"></path>
	<rect x="266" y="20" width="419.5" height="22"></rect>
	<text x="475.75" y="35">array-of-key-value-pairs-and-inactivated-blocks</text>
	</g>
	<path d="M685.5 31h10"></path>
	<path d="M695.5 31h10"></path>
	<g class="terminal whitespace">
	<path d="M705.5 31h0"></path>
	<path d="M853 31h0"></path>
	<rect x="705.5" y="20" width="147.5" height="22" rx="10" ry="10"></rect>
	<text x="779.25" y="35">ws:indentation-</text>
	</g>
	<path d="M853 31h10"></path>
	<path d="M863 31h10"></path>
	<g class="terminal ">
	<path d="M873 31h0"></path>
	<path d="M901.5 31h0"></path>
	<rect x="873" y="20" width="28.5" height="22" rx="10" ry="10"></rect>
	<text x="887.25" y="35">}</text>
	</g>
	<path d="M901.5 31h10"></path>
	<path d="M 911.5 31 h 20 m 0 -10 v 20"></path>
	</g>
	<style>
		svg {
			background-color: hsl(30,20%,95%);
		}
		path {
			stroke-width: 3;
			stroke: black;
			fill: rgba(0,0,0,0);
		}
		text {
			font: bold 14px monospace;
			text-anchor: middle;
			white-space: pre;
		}
		text.diagram-text {
			font-size: 12px;
		}
		text.diagram-arrow {
			font-size: 16px;
		}
		text.label {
			text-anchor: start;
		}
		text.comment {
			font: italic 12px monospace;
		}
		g.non-terminal text {
			/&#42;font-style: italic;&#42;/
		}
		rect {
			stroke-width: 3;
			stroke: black;
			fill: hsl(120,100%,90%);
		}
		rect.group-box {
			stroke: gray;
			stroke-dasharray: 10 5;
			fill: none;
		}
		path.diagram-text {
			stroke-width: 3;
			stroke: black;
			fill: white;
			cursor: help;
		}
		g.diagram-text:hover path.diagram-text {
			fill: #eee;
		}</style>
	</svg>
