<?xml-stylesheet type="text/css" href="style.css" ?>

<svg class="railroad-diagram" width="487" height="94" viewBox="0 0 487 94" xmlns="http://www.w3.org/2000/svg" xmlns:xlink="http://www.w3.org/1999/xlink">
	<g transform="translate(.5 .5)">
	<g>
	<path d="M20 45v20m0 -10h20"></path>
	</g>
	<path d="M40 55h10"></path>
	<g class="terminal added">
	<path d="M50 55h0"></path>
	<path d="M78.5 55h0"></path>
	<rect x="50" y="44" width="28.5" height="22" rx="10" ry="10"></rect>
	<text x="64.25" y="59">|</text>
	</g>
	<path d="M78.5 55h10"></path>
	<path d="M88.5 55h10"></path>
	<g class="terminal whitespace">
	<path d="M98.5 55h0"></path>
	<path d="M161 55h0"></path>
	<rect x="98.5" y="44" width="62.5" height="22" rx="10" ry="10"></rect>
	<text x="129.75" y="59">ws:ss</text>
	</g>
	<path d="M161 55h10"></path>
	<path d="M171 55h10"></path>
	<g>
	<path d="M181 55h0"></path>
	<path d="M272 55h0"></path>
	<rect x="181" y="36" width="91" height="38" rx="10" ry="10" class="group-box"></rect>
	<g class="non-terminal added">
	<path d="M181 55h10"></path>
	<path d="M262 55h10"></path>
	<rect x="191" y="44" width="71" height="22"></rect>
	<text x="226.5" y="59">string</text>
	</g>
	<g class="comment added">
	<path d="M181 28h0"></path>
	<path d="M233 28h0"></path>
	<text x="207" y="33" class="comment">option</text>
	</g>
	</g>
	<path d="M272 55h10"></path>
	<path d="M282 55h10"></path>
	<g class="terminal whitespace">
	<path d="M292 55h0"></path>
	<path d="M354.5 55h0"></path>
	<rect x="292" y="44" width="62.5" height="22" rx="10" ry="10"></rect>
	<text x="323.25" y="59">ws:ss</text>
	</g>
	<path d="M354.5 55h10"></path>
	<path d="M364.5 55h10"></path>
	<g class="non-terminal added">
	<path d="M374.5 55h0"></path>
	<path d="M437 55h0"></path>
	<rect x="374.5" y="44" width="62.5" height="22"></rect>
	<text x="405.75" y="59">value</text>
	</g>
	<path d="M437 55h10"></path>
	<path d="M 447 55 h 20 m 0 -10 v 20"></path>
	</g>
	<style>
		svg {
			background-color: hsl(30,20%,95%);
		}
		path {
			stroke-width: 3;
			stroke: black;
			fill: rgba(0,0,0,0);
		}
		text {
			font: bold 14px monospace;
			text-anchor: middle;
			white-space: pre;
		}
		text.diagram-text {
			font-size: 12px;
		}
		text.diagram-arrow {
			font-size: 16px;
		}
		text.label {
			text-anchor: start;
		}
		text.comment {
			font: italic 12px monospace;
		}
		g.non-terminal text {
			/&#42;font-style: italic;&#42;/
		}
		rect {
			stroke-width: 3;
			stroke: black;
			fill: hsl(120,100%,90%);
		}
		rect.group-box {
			stroke: gray;
			stroke-dasharray: 10 5;
			fill: none;
		}
		path.diagram-text {
			stroke-width: 3;
			stroke: black;
			fill: white;
			cursor: help;
		}
		g.diagram-text:hover path.diagram-text {
			fill: #eee;
		}</style>
	</svg>
