<?xml-stylesheet type="text/css" href="style.css" ?>


<svg class="railroad-diagram" width="679.5" height="144" viewBox="0 0 679.5 144" xmlns="http://www.w3.org/2000/svg" xmlns:xlink="http://www.w3.org/1999/xlink">
	<g transform="translate(.5 .5)">
	<g>
	<path d="M20 21v20m0 -10h20"></path>
	</g>
	<g>
	<path d="M40 31h0"></path>
	<path d="M639.5 31h0"></path>
	<path d="M40 31h20"></path>
	<g>
	<path d="M60 31h101.25"></path>
	<path d="M518.25 31h101.25"></path>
	<g>
	<path d="M161.25 31h0"></path>
	<path d="M363.25 31h0"></path>
	<path d="M161.25 31h20"></path>
	<g>
	<path d="M181.25 31h162"></path>
	</g>
	<path d="M343.25 31h20"></path>
	<path d="M161.25 31a10 10 0 0 1 10 10v0a10 10 0 0 0 10 10"></path>
	<g>
	<path d="M181.25 51h0"></path>
	<path d="M343.25 51h0"></path>
	<g class="terminal whitespace">
	<path d="M181.25 51h0"></path>
	<path d="M243.75 51h0"></path>
	<rect x="181.25" y="40" width="62.5" height="22" rx="10" ry="10"></rect>
	<text x="212.5" y="55">ws:nl</text>
	</g>
	<path d="M243.75 51h10"></path>
	<path d="M253.75 51h10"></path>
	<g class="non-terminal added">
	<path d="M263.75 51h0"></path>
	<path d="M343.25 51h0"></path>
	<rect x="263.75" y="40" width="79.5" height="22"></rect>
	<text x="303.5" y="55">comment</text>
	</g>
	</g>
	<path d="M343.25 51a10 10 0 0 0 10 -10v0a10 10 0 0 1 10 -10"></path>
	</g>
	<path d="M363.25 31h10"></path>
	<g class="terminal whitespace">
	<path d="M373.25 31h0"></path>
	<path d="M435.75 31h0"></path>
	<rect x="373.25" y="20" width="62.5" height="22" rx="10" ry="10"></rect>
	<text x="404.5" y="35">ws:nl</text>
	</g>
	<path d="M435.75 31h10"></path>
	<path d="M445.75 31h10"></path>
	<g class="non-terminal changed">
	<path d="M455.75 31h0"></path>
	<path d="M518.25 31h0"></path>
	<rect x="455.75" y="20" width="62.5" height="22"></rect>
	<text x="487" y="35">value</text>
	</g>
	</g>
	<path d="M619.5 31h20"></path>
	<path d="M40 31a10 10 0 0 1 10 10v54a10 10 0 0 0 10 10"></path>
	<g>
	<path d="M60 105h0"></path>
	<path d="M619.5 105h0"></path>
	<rect x="60" y="86" width="559.5" height="38" rx="10" ry="10" class="group-box"></rect>
	<g>
	<path d="M60 105h10"></path>
	<path d="M609.5 105h10"></path>
	<g class="terminal whitespace">
	<path d="M70 105h0"></path>
	<path d="M132.5 105h0"></path>
	<rect x="70" y="94" width="62.5" height="22" rx="10" ry="10"></rect>
	<text x="101.25" y="109">ws:nl</text>
	</g>
	<path d="M132.5 105h10"></path>
	<path d="M142.5 105h10"></path>
	<g class="terminal added">
	<path d="M152.5 105h0"></path>
	<path d="M189.5 105h0"></path>
	<rect x="152.5" y="94" width="37" height="22" rx="10" ry="10"></rect>
	<text x="171" y="109">#-</text>
	</g>
	<path d="M189.5 105h10"></path>
	<path d="M199.5 105h10"></path>
	<g class="non-terminal changed">
	<path d="M209.5 105h0"></path>
	<path d="M552.5 105h0"></path>
	<rect x="209.5" y="94" width="343" height="22"></rect>
	<text x="381" y="109">array-of-values-and-inactivated-blocks</text>
	</g>
	<path d="M552.5 105h10"></path>
	<path d="M562.5 105h10"></path>
	<g class="terminal added">
	<path d="M572.5 105h0"></path>
	<path d="M609.5 105h0"></path>
	<rect x="572.5" y="94" width="37" height="22" rx="10" ry="10"></rect>
	<text x="591" y="109">-#</text>
	</g>
	</g>
	<g class="comment added">
	<path d="M60 78h0"></path>
	<path d="M189 78h0"></path>
	<text x="124.5" y="83" class="comment">inactivated block</text>
	</g>
	</g>
	<path d="M619.5 105a10 10 0 0 0 10 -10v-54a10 10 0 0 1 10 -10"></path>
	</g>
	<path d="M 639.5 31 h 20 m 0 -10 v 20"></path>
	</g>
	<style>
		svg {
			background-color: hsl(30,20%,95%);
		}
		path {
			stroke-width: 3;
			stroke: black;
			fill: rgba(0,0,0,0);
		}
		text {
			font: bold 14px monospace;
			text-anchor: middle;
			white-space: pre;
		}
		text.diagram-text {
			font-size: 12px;
		}
		text.diagram-arrow {
			font-size: 16px;
		}
		text.label {
			text-anchor: start;
		}
		text.comment {
			font: italic 12px monospace;
		}
		g.non-terminal text {
			/&#42;font-style: italic;&#42;/
		}
		rect {
			stroke-width: 3;
			stroke: black;
			fill: hsl(120,100%,90%);
		}
		rect.group-box {
			stroke: gray;
			stroke-dasharray: 10 5;
			fill: none;
		}
		path.diagram-text {
			stroke-width: 3;
			stroke: black;
			fill: white;
			cursor: help;
		}
		g.diagram-text:hover path.diagram-text {
			fill: #eee;
		}</style>
	</svg>
