<?xml-stylesheet type="text/css" href="style.css" ?>

<svg class="railroad-diagram" width="597" height="124" viewBox="0 0 597 124" xmlns="http://www.w3.org/2000/svg" xmlns:xlink="http://www.w3.org/1999/xlink">
<g transform="translate(.5 .5)">
<g>
<path d="M20 21v20m0 -10h20"></path>
</g>
<g>
<path d="M40 31h0"></path>
<path d="M557 31h0"></path>
<path d="M40 31h20"></path>
<g>
<path d="M60 31h207.25"></path>
<path d="M329.75 31h207.25"></path>
<g class="non-terminal ">
<path d="M267.25 31h0"></path>
<path d="M329.75 31h0"></path>
<rect x="267.25" y="20" width="62.5" height="22"></rect>
<text x="298.5" y="35">value</text>
</g>
</g>
<path d="M537 31h20"></path>
<path d="M40 31a10 10 0 0 1 10 10v34a10 10 0 0 0 10 10"></path>
<g>
<path d="M60 85h0"></path>
<path d="M537 85h0"></path>
<rect x="60" y="66" width="477" height="38" rx="10" ry="10" class="group-box"></rect>
<g>
<path d="M60 85h10"></path>
<path d="M527 85h10"></path>
<g class="terminal ASTN">
<path d="M70 85h0"></path>
<path d="M107 85h0"></path>
<rect x="70" y="74" width="37" height="22" rx="10" ry="10"></rect>
<text x="88.5" y="89">#-</text>
</g>
<path d="M107 85h10"></path>
<path d="M117 85h10"></path>
<g class="non-terminal ASTN">
<path d="M127 85h0"></path>
<path d="M470 85h0"></path>
<rect x="127" y="74" width="343" height="22"></rect>
<text x="298.5" y="89">array-of-values-and-inactivated-blocks</text>
</g>
<path d="M470 85h10"></path>
<path d="M480 85h10"></path>
<g class="terminal ASTN">
<path d="M490 85h0"></path>
<path d="M527 85h0"></path>
<rect x="490" y="74" width="37" height="22" rx="10" ry="10"></rect>
<text x="508.5" y="89">-#</text>
</g>
</g>
<g class="comment ASTN">
<path d="M60 58h0"></path>
<path d="M189 58h0"></path>
<text x="124.5" y="63" class="comment">inactivated block</text>
</g>
</g>
<path d="M537 85a10 10 0 0 0 10 -10v-34a10 10 0 0 1 10 -10"></path>
</g>
<path d="M 557 31 h 20 m 0 -10 v 20"></path>
</g>
<style>
	svg {
		background-color: hsl(30,20%,95%);
	}
	path {
		stroke-width: 3;
		stroke: black;
		fill: rgba(0,0,0,0);
	}
	text {
		font: bold 14px monospace;
		text-anchor: middle;
		white-space: pre;
	}
	text.diagram-text {
		font-size: 12px;
	}
	text.diagram-arrow {
		font-size: 16px;
	}
	text.label {
		text-anchor: start;
	}
	text.comment {
		font: italic 12px monospace;
	}
	g.non-terminal text {
		/&#42;font-style: italic;&#42;/
	}
	rect {
		stroke-width: 3;
		stroke: black;
		fill: hsl(120,100%,90%);
	}
	rect.group-box {
		stroke: gray;
		stroke-dasharray: 10 5;
		fill: none;
	}
	path.diagram-text {
		stroke-width: 3;
		stroke: black;
		fill: white;
		cursor: help;
	}
	g.diagram-text:hover path.diagram-text {
		fill: #eee;
	}</style>
</svg>
