<?xml-stylesheet type="text/css" href="style.css" ?>
<svg class="railroad-diagram" width="242" height="332" viewBox="0 0 242 332" xmlns="http://www.w3.org/2000/svg" xmlns:xlink="http://www.w3.org/1999/xlink">
<g transform="translate(.5 .5)">
<g>
<path d="M20 21v20m0 -10h20"></path>
</g>
<g>
<path d="M40 31h0"></path>
<path d="M202 31h0"></path>
<path d="M40 31h20"></path>
<g class="terminal ">
<path d="M60 31h34"></path>
<path d="M148 31h34"></path>
<rect x="94" y="20" width="54" height="22" rx="10" ry="10"></rect>
<text x="121" y="35">true</text>
</g>
<path d="M182 31h20"></path>
<path d="M40 31a10 10 0 0 1 10 10v10a10 10 0 0 0 10 10"></path>
<g class="terminal ">
<path d="M60 61h29.75"></path>
<path d="M152.25 61h29.75"></path>
<rect x="89.75" y="50" width="62.5" height="22" rx="10" ry="10"></rect>
<text x="121" y="65">false</text>
</g>
<path d="M182 61a10 10 0 0 0 10 -10v-10a10 10 0 0 1 10 -10"></path>
<path d="M40 31a10 10 0 0 1 10 10v40a10 10 0 0 0 10 10"></path>
<g class="terminal ">
<path d="M60 91h34"></path>
<path d="M148 91h34"></path>
<rect x="94" y="80" width="54" height="22" rx="10" ry="10"></rect>
<text x="121" y="95">null</text>
</g>
<path d="M182 91a10 10 0 0 0 10 -10v-40a10 10 0 0 1 10 -10"></path>
<path d="M40 31a10 10 0 0 1 10 10v70a10 10 0 0 0 10 10"></path>
<g class="non-terminal ">
<path d="M60 121h25.5"></path>
<path d="M156.5 121h25.5"></path>
<rect x="85.5" y="110" width="71" height="22"></rect>
<text x="121" y="125">number</text>
</g>
<path d="M182 121a10 10 0 0 0 10 -10v-70a10 10 0 0 1 10 -10"></path>
<path d="M40 31a10 10 0 0 1 10 10v100a10 10 0 0 0 10 10"></path>
<g class="non-terminal changed">
<path d="M60 151h25.5"></path>
<path d="M156.5 151h25.5"></path>
<rect x="85.5" y="140" width="71" height="22"></rect>
<text x="121" y="155">string</text>
</g>
<path d="M182 151a10 10 0 0 0 10 -10v-100a10 10 0 0 1 10 -10"></path>
<path d="M40 31a10 10 0 0 1 10 10v130a10 10 0 0 0 10 10"></path>
<g class="non-terminal changed">
<path d="M60 181h25.5"></path>
<path d="M156.5 181h25.5"></path>
<rect x="85.5" y="170" width="71" height="22"></rect>
<text x="121" y="185">object</text>
</g>
<path d="M182 181a10 10 0 0 0 10 -10v-130a10 10 0 0 1 10 -10"></path>
<path d="M40 31a10 10 0 0 1 10 10v160a10 10 0 0 0 10 10"></path>
<g class="non-terminal changed">
<path d="M60 211h29.75"></path>
<path d="M152.25 211h29.75"></path>
<rect x="89.75" y="200" width="62.5" height="22"></rect>
<text x="121" y="215">array</text>
</g>
<path d="M182 211a10 10 0 0 0 10 -10v-160a10 10 0 0 1 10 -10"></path>
<path d="M40 31a10 10 0 0 1 10 10v190a10 10 0 0 0 10 10"></path>
<g class="non-terminal added">
<path d="M60 241h34"></path>
<path d="M148 241h34"></path>
<rect x="94" y="230" width="54" height="22"></rect>
<text x="121" y="245">type</text>
</g>
<path d="M182 241a10 10 0 0 0 10 -10v-190a10 10 0 0 1 10 -10"></path>
<path d="M40 31a10 10 0 0 1 10 10v220a10 10 0 0 0 10 10"></path>
<g class="non-terminal added">
<path d="M60 271h8.5"></path>
<path d="M173.5 271h8.5"></path>
<rect x="68.5" y="260" width="105" height="22"></rect>
<text x="121" y="275">array type</text>
</g>
<path d="M182 271a10 10 0 0 0 10 -10v-220a10 10 0 0 1 10 -10"></path>
<path d="M40 31a10 10 0 0 1 10 10v250a10 10 0 0 0 10 10"></path>
<g class="non-terminal added">
<path d="M60 301h0"></path>
<path d="M182 301h0"></path>
<rect x="60" y="290" width="122" height="22"></rect>
<text x="121" y="305">tagged union</text>
</g>
<path d="M182 301a10 10 0 0 0 10 -10v-250a10 10 0 0 1 10 -10"></path>
</g>
<path d="M 202 31 h 20 m 0 -10 v 20"></path>
</g>
<style>
	svg {
		background-color: hsl(30,20%,95%);
	}
	path {
		stroke-width: 3;
		stroke: black;
		fill: rgba(0,0,0,0);
	}
	text {
		font: bold 14px monospace;
		text-anchor: middle;
		white-space: pre;
	}
	text.diagram-text {
		font-size: 12px;
	}
	text.diagram-arrow {
		font-size: 16px;
	}
	text.label {
		text-anchor: start;
	}
	text.comment {
		font: italic 12px monospace;
	}
	g.non-terminal text {
		/&#42;font-style: italic;&#42;/
	}
	rect {
		stroke-width: 3;
		stroke: black;
		fill: hsl(120,100%,90%);
	}
	rect.group-box {
		stroke: gray;
		stroke-dasharray: 10 5;
		fill: none;
	}
	path.diagram-text {
		stroke-width: 3;
		stroke: black;
		fill: white;
		cursor: help;
	}
	g.diagram-text:hover path.diagram-text {
		fill: #eee;
	}</style>
</svg>
