<?xml-stylesheet type="text/css" href="style.css" ?>
<svg class="railroad-diagram" width="1015.5" height="370" viewBox="0 0 1015.5 370" xmlns="http://www.w3.org/2000/svg" xmlns:xlink="http://www.w3.org/1999/xlink">
<g transform="translate(.5 .5)">
<g>
<path d="M20 20v20m0 -10h20"></path>
</g>
<g>
<path d="M40 30h0"></path>
<path d="M975.5 30h0"></path>
<path d="M40 30h20"></path>
<g>
<path d="M60 30h895.5"></path>
</g>
<path d="M955.5 30h20"></path>
<path d="M40 30a10 10 0 0 1 10 10v23a10 10 0 0 0 10 10"></path>
<g>
<path d="M60 73h0"></path>
<path d="M955.5 73h0"></path>
<path d="M60 73h10"></path>
<g>
<path d="M70 73h0"></path>
<path d="M945.5 73h0"></path>
<path d="M70 73h20"></path>
<g>
<path d="M90 73h320.25"></path>
<path d="M605.25 73h320.25"></path>
<rect x="410.25" y="54" width="195" height="128" rx="10" ry="10" class="group-box"></rect>
<g>
<path d="M410.25 73h0"></path>
<path d="M605.25 73h0"></path>
<path d="M410.25 73h20"></path>
<g>
<path d="M430.25 73h35"></path>
<path d="M550.25 73h35"></path>
<g class="terminal ">
<path d="M465.25 73h0"></path>
<path d="M485.25 73h0"></path>
<rect x="465.25" y="62" width="20" height="22" rx="10" ry="10"></rect>
<text x="475.25" y="77"></text>
</g>
<path d="M485.25 73h10"></path>
<path d="M495.25 73h10"></path>
<g class="comment ">
<path d="M505.25 73h0"></path>
<path d="M550.25 73h0"></path>
<text x="527.75" y="78" class="comment">space</text>
</g>
</g>
<path d="M585.25 73h20"></path>
<path d="M410.25 73a10 10 0 0 1 10 10v10a10 10 0 0 0 10 10"></path>
<g>
<path d="M430.25 103h21"></path>
<path d="M564.25 103h21"></path>
<g class="terminal ">
<path d="M451.25 103h0"></path>
<path d="M471.25 103h0"></path>
<rect x="451.25" y="92" width="20" height="22" rx="10" ry="10"></rect>
<text x="461.25" y="107"></text>
</g>
<path d="M471.25 103h10"></path>
<path d="M481.25 103h10"></path>
<g class="comment ">
<path d="M491.25 103h0"></path>
<path d="M564.25 103h0"></path>
<text x="527.75" y="108" class="comment">line feed</text>
</g>
</g>
<path d="M585.25 103a10 10 0 0 0 10 -10v-10a10 10 0 0 1 10 -10"></path>
<path d="M410.25 73a10 10 0 0 1 10 10v40a10 10 0 0 0 10 10"></path>
<g>
<path d="M430.25 133h0"></path>
<path d="M585.25 133h0"></path>
<g class="terminal ">
<path d="M430.25 133h0"></path>
<path d="M450.25 133h0"></path>
<rect x="430.25" y="122" width="20" height="22" rx="10" ry="10"></rect>
<text x="440.25" y="137"></text>
</g>
<path d="M450.25 133h10"></path>
<path d="M460.25 133h10"></path>
<g class="comment ">
<path d="M470.25 133h0"></path>
<path d="M585.25 133h0"></path>
<text x="527.75" y="138" class="comment">carriage return</text>
</g>
</g>
<path d="M585.25 133a10 10 0 0 0 10 -10v-40a10 10 0 0 1 10 -10"></path>
<path d="M410.25 73a10 10 0 0 1 10 10v70a10 10 0 0 0 10 10"></path>
<g>
<path d="M430.25 163h3.5"></path>
<path d="M581.75 163h3.5"></path>
<g class="terminal ">
<path d="M433.75 163h0"></path>
<path d="M453.75 163h0"></path>
<rect x="433.75" y="152" width="20" height="22" rx="10" ry="10"></rect>
<text x="443.75" y="167"></text>
</g>
<path d="M453.75 163h10"></path>
<path d="M463.75 163h10"></path>
<g class="comment ">
<path d="M473.75 163h0"></path>
<path d="M581.75 163h0"></path>
<text x="527.75" y="168" class="comment">horizontal tab</text>
</g>
</g>
<path d="M585.25 163a10 10 0 0 0 10 -10v-70a10 10 0 0 1 10 -10"></path>
</g>
<g class="comment ">
<path d="M410.25 46h0"></path>
<path d="M525.25 46h0"></path>
<text x="467.75" y="51" class="comment">JSON Whitespace</text>
</g>
</g>
<path d="M925.5 73h20"></path>
<path d="M70 73a10 10 0 0 1 10 10v141a10 10 0 0 0 10 10"></path>
<g>
<path d="M90 234h0"></path>
<path d="M925.5 234h0"></path>
<rect x="90" y="206" width="835.5" height="56" rx="10" ry="10" class="group-box"></rect>
<g>
<path d="M90 234h10"></path>
<path d="M915.5 234h10"></path>
<g class="terminal ASTN">
<path d="M100 234h0"></path>
<path d="M137 234h0"></path>
<rect x="100" y="223" width="37" height="22" rx="10" ry="10"></rect>
<text x="118.5" y="238">//</text>
</g>
<path d="M137 234h10"></path>
<g>
<path d="M147 234h0"></path>
<path d="M915.5 234h0"></path>
<path d="M147 234a10 10 0 0 0 10 -10v0a10 10 0 0 1 10 -10"></path>
<g>
<path d="M167 214h728.5"></path>
</g>
<path d="M895.5 214a10 10 0 0 1 10 10v0a10 10 0 0 0 10 10"></path>
<path d="M147 234h20"></path>
<g>
<path d="M167 234h0"></path>
<path d="M895.5 234h0"></path>
<path d="M167 234h10"></path>
<g class="non-terminal ASTN">
<path d="M177 234h0"></path>
<path d="M885.5 234h0"></path>
<rect x="177" y="223" width="708.5" height="22"></rect>
<text x="531.25" y="238">Any code point except \n (line feed) or \r (carriage return) or control character</text>
</g>
<path d="M885.5 234h10"></path>
<path d="M177 234a10 10 0 0 0 -10 10v0a10 10 0 0 0 10 10"></path>
<g>
<path d="M177 254h708.5"></path>
</g>
<path d="M885.5 254a10 10 0 0 0 10 -10v0a10 10 0 0 0 -10 -10"></path>
</g>
<path d="M895.5 234h20"></path>
</g>
</g>
<g class="comment ASTN">
<path d="M90 198h0"></path>
<path d="M184 198h0"></path>
<text x="137" y="203" class="comment">line comment</text>
</g>
</g>
<path d="M925.5 234a10 10 0 0 0 10 -10v-141a10 10 0 0 1 10 -10"></path>
<path d="M70 73a10 10 0 0 1 10 10v221a10 10 0 0 0 10 10"></path>
<g>
<path d="M90 314h74.25"></path>
<path d="M851.25 314h74.25"></path>
<rect x="164.25" y="286" width="687" height="56" rx="10" ry="10" class="group-box"></rect>
<g>
<path d="M164.25 314h10"></path>
<path d="M841.25 314h10"></path>
<g class="terminal ASTN">
<path d="M174.25 314h0"></path>
<path d="M211.25 314h0"></path>
<rect x="174.25" y="303" width="37" height="22" rx="10" ry="10"></rect>
<text x="192.75" y="318">/&#42;</text>
</g>
<path d="M211.25 314h10"></path>
<g>
<path d="M221.25 314h0"></path>
<path d="M794.25 314h0"></path>
<path d="M221.25 314a10 10 0 0 0 10 -10v0a10 10 0 0 1 10 -10"></path>
<g>
<path d="M241.25 294h533"></path>
</g>
<path d="M774.25 294a10 10 0 0 1 10 10v0a10 10 0 0 0 10 10"></path>
<path d="M221.25 314h20"></path>
<g>
<path d="M241.25 314h0"></path>
<path d="M774.25 314h0"></path>
<path d="M241.25 314h10"></path>
<g class="non-terminal ASTN">
<path d="M251.25 314h0"></path>
<path d="M764.25 314h0"></path>
<rect x="251.25" y="303" width="513" height="22"></rect>
<text x="507.75" y="318">Any code point except &#42; followed by / or control character</text>
</g>
<path d="M764.25 314h10"></path>
<path d="M251.25 314a10 10 0 0 0 -10 10v0a10 10 0 0 0 10 10"></path>
<g>
<path d="M251.25 334h513"></path>
</g>
<path d="M764.25 334a10 10 0 0 0 10 -10v0a10 10 0 0 0 -10 -10"></path>
</g>
<path d="M774.25 314h20"></path>
</g>
<path d="M794.25 314h10"></path>
<g class="terminal ASTN">
<path d="M804.25 314h0"></path>
<path d="M841.25 314h0"></path>
<rect x="804.25" y="303" width="37" height="22" rx="10" ry="10"></rect>
<text x="822.75" y="318">&#42;/</text>
</g>
</g>
<g class="comment ASTN">
<path d="M164.25 278h0"></path>
<path d="M265.25 278h0"></path>
<text x="214.75" y="283" class="comment">block comment</text>
</g>
</g>
<path d="M925.5 314a10 10 0 0 0 10 -10v-221a10 10 0 0 1 10 -10"></path>
</g>
<path d="M945.5 73h10"></path>
<path d="M70 73a10 10 0 0 0 -10 10v257a10 10 0 0 0 10 10"></path>
<g>
<path d="M70 350h875.5"></path>
</g>
<path d="M945.5 350a10 10 0 0 0 10 -10v-257a10 10 0 0 0 -10 -10"></path>
</g>
<path d="M955.5 73a10 10 0 0 0 10 -10v-23a10 10 0 0 1 10 -10"></path>
</g>
<path d="M 975.5 30 h 20 m 0 -10 v 20"></path>
</g>
<style>
	svg {
		background-color: hsl(30,20%,95%);
	}
	path {
		stroke-width: 3;
		stroke: black;
		fill: rgba(0,0,0,0);
	}
	text {
		font: bold 14px monospace;
		text-anchor: middle;
		white-space: pre;
	}
	text.diagram-text {
		font-size: 12px;
	}
	text.diagram-arrow {
		font-size: 16px;
	}
	text.label {
		text-anchor: start;
	}
	text.comment {
		font: italic 12px monospace;
	}
	g.non-terminal text {
		/&#42;font-style: italic;&#42;/
	}
	rect {
		stroke-width: 3;
		stroke: black;
		fill: hsl(120,100%,90%);
	}
	rect.group-box {
		stroke: gray;
		stroke-dasharray: 10 5;
		fill: none;
	}
	path.diagram-text {
		stroke-width: 3;
		stroke: black;
		fill: white;
		cursor: help;
	}
	g.diagram-text:hover path.diagram-text {
		fill: #eee;
	}</style>
</svg>
